HIERARCHY
ROOT root
{
	OFFSET	0	13.1	24.9
	CHANNELS 6  Xposition Yposition Zposition Xrotation Yrotation Zrotation
	JOINT spine_1
	{
		OFFSET	0	9.99999	0
		CHANNELS 3  Xrotation Yrotation Zrotation
		JOINT spine_2
		{
			OFFSET	0	112	-10
			CHANNELS 3  Xrotation Yrotation Zrotation
			JOINT spine_3
			{
				OFFSET	0	206.5	19.3
				CHANNELS 3  Xrotation Yrotation Zrotation
				JOINT spine_4
				{
					OFFSET	0	110.4	14.6
					CHANNELS 3  Xrotation Yrotation Zrotation
					JOINT neck_1
					{
						OFFSET	0	71.8	-50.3
						CHANNELS 3  Xrotation Yrotation Zrotation
						JOINT neck_2
						{
							OFFSET	0	86.2	-25.8
							CHANNELS 3  Xrotation Yrotation Zrotation
							JOINT head_ee
							{
								OFFSET	0	179.8	-8.7
								CHANNELS 3  Xrotation Yrotation Zrotation
								End Site
								{
									OFFSET	1	0	0
								}
							}
						}
					}
					JOINT left_clavicle
					{
						OFFSET	-43.2	22.4	-70.8
						CHANNELS 3  Xrotation Yrotation Zrotation
						JOINT left_shoulder
						{
							OFFSET	-93.9	-5.79999	48.7
							CHANNELS 3  Xrotation Yrotation Zrotation
							JOINT left_elbow
							{
								OFFSET	-291.4	-30.8	15.2
								CHANNELS 3  Xrotation Yrotation Zrotation
								JOINT left_lowarm_twist
								{
									OFFSET	-110.7	-3.89999	13.6
									CHANNELS 3  Xrotation Yrotation Zrotation
									JOINT left_hand
									{
										OFFSET	-110.7	-3.89999	13.6
										CHANNELS 3  Xrotation Yrotation Zrotation
										JOINT left_ee
										{
											OFFSET	-80.8	-5.10001	12.1
											CHANNELS 3  Xrotation Yrotation Zrotation
											End Site
											{
												OFFSET	1	0	0
											}
										}
									}
								}
							}
						}
					}
					JOINT right_clavicle
					{
						OFFSET	43.2	22.4	-70.8
						CHANNELS 3  Xrotation Yrotation Zrotation
						JOINT right_shoulder
						{
							OFFSET	93.9	-5.79999	48.7
							CHANNELS 3  Xrotation Yrotation Zrotation
							JOINT right_elbow
							{
								OFFSET	291.4	-30.8	15.2
								CHANNELS 3  Xrotation Yrotation Zrotation
								JOINT right_lowarm_twist
								{
									OFFSET	110.7	-3.89999	13.6
									CHANNELS 3  Xrotation Yrotation Zrotation
									JOINT right_hand
									{
										OFFSET	110.7	-3.89999	13.6
										CHANNELS 3  Xrotation Yrotation Zrotation
										JOINT right_ee
										{
											OFFSET	80.8	-5.10001	12.1
											CHANNELS 3  Xrotation Yrotation Zrotation
											End Site
											{
												OFFSET	1	0	0
											}
										}
									}
								}
							}
						}
					}
				}
			}
		}
	}
	JOINT left_hip
	{
		OFFSET	-82.8	-127.5	0.300001
		CHANNELS 3  Xrotation Yrotation Zrotation
		JOINT left_knee
		{
			OFFSET	-28.2	-396.7	2.2
			CHANNELS 3  Xrotation Yrotation Zrotation
			JOINT left_ankle
			{
				OFFSET	-11.7	-411.3	35.4
				CHANNELS 3  Xrotation Yrotation Zrotation
				JOINT left_toes
				{
					OFFSET	0	-60	-88.6
					CHANNELS 3  Xrotation Yrotation Zrotation
					JOINT left_foot_ee
					{
						OFFSET	-22.5	-16.5	-42.2
						CHANNELS 3  Xrotation Yrotation Zrotation
						End Site
						{
							OFFSET	1	0	0
						}
					}
				}
			}
		}
	}
	JOINT right_hip
	{
		OFFSET	82.8	-127.5	0.300001
		CHANNELS 3  Xrotation Yrotation Zrotation
		JOINT right_knee
		{
			OFFSET	28.2	-396.7	2.2
			CHANNELS 3  Xrotation Yrotation Zrotation
			JOINT right_ankle
			{
				OFFSET	11.7	-411.3	35.4
				CHANNELS 3  Xrotation Yrotation Zrotation
				JOINT right_toes
				{
					OFFSET	0	-60	-88.6
					CHANNELS 3  Xrotation Yrotation Zrotation
					JOINT right_foot_ee
					{
						OFFSET	22.5	-16.5	-42.2
						CHANNELS 3  Xrotation Yrotation Zrotation
						End Site
						{
							OFFSET	1	0	0
						}
					}
				}
			}
		}
	}
}
MOTION
Frames: 16
Frame Time: 0.02
1372.05 701.618 -1475.22 -5.67873418035 43.6922753824 1.90275258319 -0.146545 -0.136903 0.0610377 -0.146553 -0.140509 0.0522025 -0.146689 -0.148397 0.0211247 -0.146662 -0.143199 0.0442962 -17.4977 20.7391 5.4816 -19.2615 36.8999 13.6857 -0.0 0.0 -0.0 6.65927 14.1391 12.5971 9.13512 -22.2443 53.1986 4.69649 -66.7178 3.09292 -28.6656 -1.83411 3.13367 -2.62903 23.6231 -5.66561 -0.0 0.0 -0.0 10.1027 13.5621 -19.9764 -25.814 5.65535 -56.6945 0.623435 17.1625 -0.0940777 53.874 1.2599 6.51503 -3.10325 -29.0917 5.31908 0.0 0.0 0.0 -12.4076 -2.86848 16.9301 -1.89138 0.0732429 0.281008 39.1323 26.1744 -5.12255 -3.3059 0.0 0.0 -0.0 0.0 -0.0 34.2827 23.1056 -8.95045 4.24489 0.197934 0.621071 -15.9626 15.3713 -2.62336 -1.55717 0.0 0.0 0.0 0.0 0.0 
1298.02995165 715.213 -1509.05585292 -9.3764084813 48.5018256404 5.21052027217 -0.0395153 0.101846 0.217015 -0.0394935 0.0878306 0.223056 -0.0391315 0.0388266 0.23656 -0.0392013 0.0756995 0.22746 -16.8777 18.9948 3.40122 -18.347 34.5919 10.7278 -0.0 0.0 -0.0 6.60809 16.1454 12.4044 6.01541 -24.2672 55.53 4.02292 -63.3344 2.48205 -28.6395 -1.83176 3.13129 -2.62533 27.5544 -3.56643 -0.0 0.0 -0.0 11.4937 13.9518 -23.0792 -22.6343 7.75667 -55.3354 0.571318 15.8024 -0.0792899 54.3909 1.30078 6.56712 -3.75874 -28.9008 8.9792 0.0 0.0 0.0 -10.3727 -2.42306 15.3603 -7.40266 0.233256 1.11136 32.9056 23.1234 -4.38801 -8.80648 0.0 0.0 -0.0 0.0 -0.0 35.092 23.9508 -8.34982 0.305087 0.0126827 0.0451001 -21.7261 20.38 -3.73824 -1.06368 0.0 0.0 0.0 0.0 0.0 
1298.37899454 715.213 -1509.80923901 -9.27044220293 47.9250099036 5.06840606338 -0.0395153 0.101846 0.217015 -0.0394935 0.0878306 0.223056 -0.0391315 0.0388266 0.23656 -0.0392013 0.0756995 0.22746 -16.8777 18.9948 3.40122 -18.347 34.5919 10.7278 -0.0 0.0 -0.0 6.60809 16.1454 12.4044 6.01541 -24.2672 55.53 4.02292 -63.3344 2.48205 -28.6395 -1.83176 3.13129 -2.62533 27.5544 -3.56643 -0.0 0.0 -0.0 11.4937 13.9518 -23.0792 -22.6343 7.75667 -55.3354 0.571318 15.8024 -0.0792899 54.3909 1.30078 6.56712 -3.75874 -28.9008 8.9792 0.0 0.0 0.0 -10.3727 -2.42306 15.3603 -7.40266 0.233256 1.11136 32.9056 23.1234 -4.38801 -8.80648 0.0 0.0 -0.0 0.0 -0.0 35.092 23.9508 -8.34982 0.305087 0.0126827 0.0451001 -21.7261 20.38 -3.73824 -1.06368 0.0 0.0 0.0 0.0 0.0 
1262.63381053 724.905 -1525.59158706 -10.5145776948 48.746999326 6.79898347151 -0.072249 0.165077 -0.127025 -0.0722566 0.172825 -0.116264 -0.0726214 0.193499 -0.0770973 -0.0725852 0.178894 -0.106689 -18.1101 17.6589 1.65172 -19.6401 33.073 8.96097 -0.0 0.0 -0.0 6.13878 18.5378 11.5238 2.14767 -25.415 57.2803 3.9389 -62.8471 2.40713 -29.5761 -1.91681 3.21606 -2.65756 28.1146 -3.4456 -0.0 0.0 -0.0 11.8509 14.6473 -23.8691 -20.7688 8.83245 -55.2711 0.545773 15.129 -0.0724778 55.75 1.4105 6.70233 -4.02583 -28.9832 10.3865 0.0 0.0 0.0 -9.39122 -2.34071 13.8431 -9.41468 0.271661 1.4177 31.4514 20.9204 -4.18175 -9.37233 0.0 0.0 -0.0 0.0 -0.0 34.396 23.8107 -8.85288 -5.22263 -0.179525 -0.781138 -18.9231 18.2209 -3.1898 -1.09331 0.0 0.0 0.0 0.0 0.0 
1209.47561637 728.122 -1537.66688854 -10.4230700807 52.8399847905 6.90688836142 0.090082 0.28463 -0.0306692 0.0900369 0.286005 -0.0124952 0.0899534 0.282317 0.0474521 0.0900648 0.286269 0.0022694 -16.2874 17.8465 0.482255 -17.6498 33.9506 7.34763 -0.0 0.0 -0.0 5.38212 19.4927 10.3167 -2.90708 -26.0463 58.437 3.47389 -59.8244 1.99896 -29.6857 -1.92685 3.22589 -2.18705 24.814 -2.536 -0.0 0.0 -0.0 12.5432 18.9957 -25.2529 -17.854 11.0659 -55.5116 0.560871 15.5275 -0.0764691 58.5271 1.64457 6.9704 -3.63028 -28.7806 8.35279 0.0 0.0 0.0 -6.8027 0.0241926 11.7116 -16.4065 0.321116 2.48869 28.9355 18.8309 -3.86547 -8.19805 0.0 0.0 -0.0 0.0 -0.0 30.0987 24.1386 -7.44499 -5.83516 -0.195892 -0.873714 -12.2343 19.9764 -2.08514 -2.11749 0.0 0.0 0.0 0.0 0.0 
1210.46039689 728.122 -1540.17263096 -10.2169835368 51.9685530788 6.64679581626 0.090082 0.28463 -0.0306692 0.0900369 0.286005 -0.0124952 0.0899534 0.282317 0.0474521 0.0900648 0.286269 0.0022694 -16.2874 17.8465 0.482255 -17.6498 33.9506 7.34763 -0.0 0.0 -0.0 5.38212 19.4927 10.3167 -2.90708 -26.0463 58.437 3.47389 -59.8244 1.99896 -29.6857 -1.92685 3.22589 -2.18705 24.814 -2.536 -0.0 0.0 -0.0 12.5432 18.9957 -25.2529 -17.854 11.0659 -55.5116 0.560871 15.5275 -0.0764691 58.5271 1.64457 6.9704 -3.63028 -28.7806 8.35279 0.0 0.0 0.0 -6.8027 0.0241926 11.7116 -16.4065 0.321116 2.48869 28.9355 18.8309 -3.86547 -8.19805 0.0 0.0 -0.0 0.0 -0.0 30.0987 24.1386 -7.44499 -5.83516 -0.195892 -0.873714 -12.2343 19.9764 -2.08514 -2.11749 0.0 0.0 0.0 0.0 0.0 
1168.25053703 726.627 -1534.62575641 -12.1459770821 57.0868863331 7.4167749589 0.157453 0.32538 0.204631 0.157422 0.3117 0.224921 0.158668 0.258257 0.284692 0.158681 0.299978 0.240332 -16.5982 18.7895 2.61305 -18.0434 34.6016 9.82148 -0.0 0.0 -0.0 4.42574 18.806 8.87523 -8.00942 -26.0253 58.996 2.91233 -55.2612 1.52475 -26.9018 -1.67769 2.97041 -1.30151 20.6979 0.632122 -0.0 0.0 -0.0 13.5198 27.0244 -26.7548 -13.2107 12.1382 -55.5518 0.56873 15.7344 -0.0785867 61.4729 1.9068 7.24211 -3.86626 -28.0425 10.1036 0.0 0.0 0.0 -1.04845 6.98298 9.66642 -35.1996 -0.189942 5.31468 33.1073 10.73 -4.2266 -6.09822 0.0 0.0 -0.0 0.0 -0.0 25.283 19.4321 -4.21129 -2.44459 -0.0929062 -0.363632 1.22276 22.2275 0.207248 -11.7179 0.0 0.0 0.0 0.0 0.0 
1169.8785778 726.627 -1539.95006293 -11.6798960213 55.6164552102 6.85693445879 0.157453 0.32538 0.204631 0.157422 0.3117 0.224921 0.158668 0.258257 0.284692 0.158681 0.299978 0.240332 -16.5982 18.7895 2.61305 -18.0434 34.6016 9.82148 -0.0 0.0 -0.0 4.42574 18.806 8.87523 -8.00942 -26.0253 58.996 2.91233 -55.2612 1.52475 -26.9018 -1.67769 2.97041 -1.30151 20.6979 0.632122 -0.0 0.0 -0.0 13.5198 27.0244 -26.7548 -13.2107 12.1382 -55.5518 0.56873 15.7344 -0.0785867 61.4729 1.9068 7.24211 -3.86626 -28.0425 10.1036 0.0 0.0 0.0 -1.04845 6.98298 9.66642 -35.1996 -0.189942 5.31468 33.1073 10.73 -4.2266 -6.09822 0.0 0.0 -0.0 0.0 -0.0 25.283 19.4321 -4.21129 -2.44459 -0.0929062 -0.363632 1.22276 22.2275 0.207248 -11.7179 0.0 0.0 0.0 0.0 0.0 
1146.13536882 727.104 -1546.43342163 -12.8932650104 58.3352091326 7.83346208608 0.189684 0.366449 0.321245 0.189675 0.345265 0.343912 0.191803 0.266645 0.407901 0.191721 0.327719 0.360671 -17.7446 19.7995 4.712 -19.418 35.5335 12.6263 -0.0 0.0 -0.0 4.08036 19.9287 8.34912 -10.5048 -24.6603 59.6457 2.42835 -50.2555 1.13909 -26.0829 -1.60679 2.89299 -1.09995 18.774 0.979489 -0.0 0.0 -0.0 13.7718 27.6771 -27.2537 -11.0725 13.643 -55.4592 0.663642 18.1983 -0.106289 63.3738 2.08332 7.4102 -3.66109 -28.9402 8.42345 0.0 0.0 0.0 2.18229 7.89244 7.58407 -40.784 -0.517394 6.10767 30.5503 7.71405 -3.94821 -5.9053 0.0 0.0 -0.0 0.0 -0.0 22.0088 17.3013 -2.47256 -0.720635 -0.0290016 -0.106787 9.4069 27.6981 1.64772 -14.6141 0.0 0.0 0.0 0.0 0.0 
1126.56330993 731.745 -1553.15028935 -10.7618955916 58.9790545292 5.30581012072 0.298476 0.426672 0.413074 0.298482 0.399523 0.439387 0.301633 0.300963 0.511957 0.301467 0.378039 0.458002 -18.4949 19.3465 5.54108 -20.1142 34.3203 13.41 -0.0 0.0 -0.0 3.97808 19.3385 8.19524 -13.1535 -24.5056 59.5104 2.17326 -47.1057 0.947438 -26.2631 -1.62229 2.91011 -0.945144 18.2937 1.70187 -0.0 0.0 -0.0 13.7742 27.3844 -27.2985 -10.3105 14.6369 -55.5164 0.723965 19.7294 -0.125894 63.2741 2.07393 7.40153 -3.52406 -28.4791 7.95502 0.0 0.0 0.0 6.60627 8.13311 6.00602 -45.1194 -0.824155 6.69957 32.4229 5.16426 -4.1418 -6.11587 0.0 0.0 -0.0 0.0 -0.0 18.0491 16.5704 -1.0764 -0.173034 -0.00708648 -0.0256081 15.2087 27.632 2.59118 -14.2882 0.0 0.0 0.0 0.0 0.0 
1048.38718755 729.193 -1522.05025556 -11.2364754501 73.6679001377 6.04707570275 0.485254 0.291813 0.408678 0.485308 0.265217 0.426419 0.487351 0.173691 0.471173 0.487126 0.245923 0.437829 -17.6689 19.1089 6.999 -18.9507 32.9738 14.2514 -0.0 0.0 -0.0 3.58725 24.1082 7.64675 -17.9696 -23.5104 60.5181 1.42953 -35.302 0.454896 -26.7616 -1.66547 2.95722 -0.243309 18.2076 5.9091 -0.0 0.0 -0.0 13.5103 24.3626 -27.0467 -8.8937 15.9315 -56.8629 0.987151 26.0584 -0.228437 64.8745 2.22658 7.53873 -1.88145 -26.7424 -0.108153 0.0 0.0 0.0 11.1792 18.2103 0.58426 -54.7053 -1.65618 7.91686 25.6536 -5.48643 -3.48279 -7.95053 0.0 0.0 -0.0 0.0 -0.0 7.32706 14.6196 2.55129 6.26623 0.308272 0.911387 17.2094 29.9583 2.98881 -13.5173 0.0 0.0 0.0 0.0 0.0 
1028.59178283 729.688 -1524.40382518 -9.04610308659 76.2342126004 4.28489126583 0.547168 0.171608 0.432346 0.547261 0.14375 0.442389 0.548427 0.0519887 0.462243 0.548151 0.124338 0.448232 -14.6261 17.8097 6.1287 -15.3587 30.4352 11.8687 -0.0 0.0 -0.0 3.44191 23.9556 7.44708 -18.9411 -21.6511 60.6799 1.21949 -31.1348 0.339751 -25.6411 -1.56901 2.85081 -0.150724 18.7131 6.66897 -0.0 0.0 -0.0 13.6047 23.4939 -27.358 -7.96706 15.9097 -56.9939 1.04097 27.2779 -0.252592 66.9165 2.42685 7.70755 -0.117268 -21.7307 -8.0308 0.0 0.0 0.0 11.8273 17.7914 -1.76041 -53.4209 -1.53297 7.76195 20.601 -8.88503 -2.91685 -6.08292 0.0 0.0 -0.0 0.0 -0.0 4.42457 14.699 2.44138 6.08022 0.29769 0.884832 19.7859 27.9638 3.30253 -14.4141 0.0 0.0 0.0 0.0 0.0 
1015.90587664 724.67 -1524.80088642 -7.00865174483 78.0052289064 2.4974733451 0.475012 0.101336 0.566948 0.475189 0.0650552 0.572247 0.475913 -0.0519089 0.573589 0.475456 0.0393288 0.574589 -13.3077 16.5775 4.53683 -13.8673 28.8053 9.56028 -0.0 0.0 -0.0 3.12214 22.6976 6.98661 -20.219 -20.3646 60.9146 1.06494 -27.8128 0.26368 -25.2583 -1.53654 2.81404 -0.228474 20.1461 6.76044 -0.0 0.0 -0.0 13.4087 23.4924 -26.8998 -6.74513 15.226 -57.974 1.18635 30.441 -0.322791 66.716 2.40692 7.69129 0.723136 -19.4837 -12.271 0.0 0.0 0.0 12.341 22.1059 -3.01882 -50.6292 -1.2774 7.4161 17.4082 -7.79434 -2.49054 -4.9695 0.0 0.0 -0.0 0.0 -0.0 2.62611 13.8128 2.76801 6.80924 0.339657 0.988711 23.349 27.9585 3.81522 -16.05 0.0 0.0 0.0 0.0 0.0 
1018.17516043 724.67 -1539.01262357 -5.90336577957 75.7263044397 1.36272315671 0.475012 0.101336 0.566948 0.475189 0.0650552 0.572247 0.475913 -0.0519089 0.573589 0.475456 0.0393288 0.574589 -13.3077 16.5775 4.53683 -13.8673 28.8053 9.56028 -0.0 0.0 -0.0 3.12214 22.6976 6.98661 -20.219 -20.3646 60.9146 1.06494 -27.8128 0.26368 -25.2583 -1.53654 2.81404 -0.228474 20.1461 6.76044 -0.0 0.0 -0.0 13.4087 23.4924 -26.8998 -6.74513 15.226 -57.974 1.18635 30.441 -0.322791 66.716 2.40692 7.69129 0.723136 -19.4837 -12.271 0.0 0.0 0.0 12.341 22.1059 -3.01882 -50.6292 -1.2774 7.4161 17.4082 -7.79434 -2.49054 -4.9695 0.0 0.0 -0.0 0.0 -0.0 2.62611 13.8128 2.76801 6.80924 0.339657 0.988711 23.349 27.9585 3.81522 -16.05 0.0 0.0 0.0 0.0 0.0 
1008.48348108 723.679 -1547.66574743 -5.2053240876 75.7120830017 0.881815976712 0.39866 0.209487 0.49531 0.398779 0.177545 0.507636 0.400436 0.0706185 0.533131 0.400072 0.153929 0.515288 -12.8909 16.0849 4.81419 -13.3498 27.6233 9.53025 -0.0 0.0 -0.0 3.01728 22.8189 6.84213 -19.7874 -18.2892 61.4532 1.02274 -26.8677 0.244296 -24.5902 -1.48046 2.74934 -0.160436 20.7743 7.40945 -0.0 0.0 -0.0 13.6277 22.9175 -27.4687 -6.36771 13.9646 -57.2537 1.31635 33.106 -0.391262 68.4055 2.57661 7.82613 1.75012 -14.5066 -17.1069 0.0 0.0 0.0 13.0876 22.1371 -3.4556 -48.4293 -1.08814 7.13519 15.5804 -7.27746 -2.24236 -6.0588 0.0 0.0 -0.0 0.0 -0.0 1.41691 13.4851 2.81325 6.34704 0.312896 0.922912 26.6898 26.6729 4.20503 -16.7288 0.0 0.0 0.0 0.0 0.0 
1010.18677278 723.679 -1555.74331828 -4.78832634918 74.4410130897 0.450288938266 0.39866 0.209487 0.49531 0.398779 0.177545 0.507636 0.400436 0.0706185 0.533131 0.400072 0.153929 0.515288 -12.8909 16.0849 4.81419 -13.3498 27.6233 9.53025 -0.0 0.0 -0.0 3.01728 22.8189 6.84213 -19.7874 -18.2892 61.4532 1.02274 -26.8677 0.244296 -24.5902 -1.48046 2.74934 -0.160436 20.7743 7.40945 -0.0 0.0 -0.0 13.6277 22.9175 -27.4687 -6.36771 13.9646 -57.2537 1.31635 33.106 -0.391262 68.4055 2.57661 7.82613 1.75012 -14.5066 -17.1069 0.0 0.0 0.0 13.0876 22.1371 -3.4556 -48.4293 -1.08814 7.13519 15.5804 -7.27746 -2.24236 -6.0588 0.0 0.0 -0.0 0.0 -0.0 1.41691 13.4851 2.81325 6.34704 0.312896 0.922912 26.6898 26.6729 4.20503 -16.7288 0.0 0.0 0.0 0.0 0.0 
